<?xml version="1.0" encoding="UTF-8"?>
<svg version="1.1" xmlns="http://www.w3.org/2000/svg" width="256" height="256">
<path d="M0 0 C84.48 0 168.96 0 256 0 C256 84.48 256 168.96 256 256 C171.52 256 87.04 256 0 256 C0 171.52 0 87.04 0 0 Z " fill="#9999FE" transform="translate(0,0)"/>
<path d="M0 0 C0 18.48 0 36.96 0 56 C9.57 56 19.14 56 29 56 C29 38.18 29 20.36 29 2 C37.53768577 3.70753715 43.42389862 9.55111625 48.42578125 16.5234375 C56.06144318 28.53586843 56.80201753 41.05366862 54.30078125 54.859375 C52.01920316 63.06150382 48.17506709 70.09978752 42 76 C43.7989503 81.07634826 46.49026455 85.63713611 49.125 90.3125 C49.82689453 91.56643555 49.82689453 91.56643555 50.54296875 92.84570312 C51.6926259 94.89866233 52.84503802 96.95002202 54 99 C65.67748605 93.37289585 73.00068732 81.59919582 78 70 C78.29519531 69.33613281 78.59039062 68.67226562 78.89453125 67.98828125 C82.96575789 58.10101656 83.27909273 47.86785189 83.125 37.3125 C83.11597656 36.12205078 83.10695313 34.93160156 83.09765625 33.70507812 C83.07434772 30.80316633 83.04163123 27.90169683 83 25 C85.62676863 27.37099664 87.19456641 29.86264373 88.8984375 32.953125 C89.45345947 33.9529541 90.00848145 34.9527832 90.58032227 35.98291016 C91.17256592 37.0610498 91.76480957 38.13918945 92.375 39.25 C93.6414776 41.53410345 94.90841458 43.81795224 96.17578125 46.1015625 C96.49665207 46.68130829 96.81752289 47.26105408 97.14811707 47.85836792 C100.25237443 53.46652291 103.40261883 59.04805638 106.5625 64.625 C107.63675123 66.52341912 108.71096996 68.42185663 109.78515625 70.3203125 C110.31512207 71.25649414 110.84508789 72.19267578 111.39111328 73.15722656 C113.55412871 76.97910087 115.71491273 80.80223427 117.87548828 84.62548828 C118.95046986 86.52762732 120.02566197 88.42964739 121.10107422 90.33154297 C123.94990067 95.37004204 126.79543983 100.4103654 129.63671875 105.453125 C130.23097656 106.50693359 130.82523438 107.56074219 131.4375 108.64648438 C132.58037164 110.6732958 133.72233916 112.70061738 134.86328125 114.72851562 C135.37632812 115.63794922 135.889375 116.54738281 136.41796875 117.484375 C136.86938232 118.28584961 137.3207959 119.08732422 137.78588867 119.91308594 C138.79450834 121.64678409 139.88741148 123.33111723 141 125 C141 137.21 141 149.42 141 162 C93.15 162 45.3 162 -4 162 C-5.98 158.04 -7.96 154.08 -10 150 C-11.9547088 146.46152982 -13.92639396 142.94314132 -15.9375 139.4375 C-17.06988094 137.448412 -18.20135067 135.45880504 -19.33203125 133.46875 C-19.92322754 132.42847656 -20.51442383 131.38820312 -21.12353516 130.31640625 C-24.14993462 124.96764093 -27.14304607 119.60049663 -30.12893677 114.22903442 C-31.10563816 112.4723245 -32.08393106 110.71649972 -33.06225586 108.96069336 C-33.66303955 107.87925049 -34.26382324 106.79780762 -34.8828125 105.68359375 C-35.67776123 104.25358032 -35.67776123 104.25358032 -36.48876953 102.79467773 C-38.05771858 99.89326259 -39.5403883 96.95772045 -41 94 C-37.88898176 95.43911048 -35.30246919 97.1984885 -32.5625 99.25 C-17.80197473 109.65389446 -2.90144327 112.50284601 14.75 112.1875 C16.23696545 112.17240967 17.7239459 112.15872904 19.2109375 112.14648438 C22.80761014 112.11386039 26.40370473 112.0623247 30 112 C28.75256064 109.4778714 27.50212931 106.95729922 26.25 104.4375 C25.90195313 103.73302734 25.55390625 103.02855469 25.1953125 102.30273438 C24.49071357 100.88701245 23.77397666 99.47726853 23.04541016 98.07373047 C22 96 22 96 21.15380859 93.94580078 C20.23828124 91.73699665 20.23828124 91.73699665 18 89 C15.06215889 88.02647559 12.20052615 88.03758034 9.125 88 C-2.16360027 87.34865165 -12.08799492 83.75269469 -20.48046875 75.78515625 C-30.63148396 63.85967052 -34.22212455 50.47450663 -33 35 C-30.49983489 22.49917443 -24.34630711 11.94404897 -13.8828125 4.4921875 C-9.01467608 1.37158723 -6.00005045 0 0 0 Z " fill="#888AEC" transform="translate(115,94)"/>
<path d="M0 0 C0 8.58 0 17.16 0 26 C-3.3 27.32 -6.6 28.64 -10 30 C-21.26943777 36.84973063 -28.44014741 46.69578325 -31.6171875 59.484375 C-33.87751574 74.3379606 -30.10494648 87.84258028 -21.875 100.1875 C-16.57762801 106.08837006 -8.392761 110.44782962 -1 113 C1.1653992 113.11292986 1.1653992 113.11292986 3.41796875 112.9921875 C8.55165704 112.80790673 13.29199902 112.70841619 18 115 C23.5540689 120.68258624 30 130.85520208 30 139 C8.34690521 142.78314014 -13.59595163 140.50480476 -32 128 C-41.60602676 120.89323103 -48.14596422 112.31123005 -54 102 C-54.43957031 101.28328125 -54.87914062 100.5665625 -55.33203125 99.828125 C-60.84347573 90.16761558 -61.26752992 79.02269382 -61.3125 68.1875 C-61.31797852 67.22126709 -61.32345703 66.25503418 -61.32910156 65.25952148 C-61.15285892 47.57600305 -53.65593339 31.90458564 -41.5625 19.125 C-30.47113127 8.82223776 -15.44042139 0 0 0 Z " fill="#FDFDFE" transform="translate(115,67)"/>
<path d="M0 0 C0 18.48 0 36.96 0 56 C9.57 56 19.14 56 29 56 C29 38.18 29 20.36 29 2 C37.53768577 3.70753715 43.42389862 9.55111625 48.42578125 16.5234375 C56.06144318 28.53586843 56.80201753 41.05366862 54.30078125 54.859375 C52.0878774 62.81462429 48.31801517 70.48671847 42 76 C41.34 76 40.68 76 40 76 C38.85498047 74.47119141 38.85498047 74.47119141 37.6171875 72.3515625 C37.17246094 71.59359375 36.72773438 70.835625 36.26953125 70.0546875 C35.80933594 69.25289063 35.34914063 68.45109375 34.875 67.625 C34.40707031 66.8309375 33.93914062 66.036875 33.45703125 65.21875 C30 59.2722531 30 59.2722531 30 57 C20.43 57.33 10.86 57.66 1 58 C2.155 59.99804688 3.31 61.99609375 4.5 64.0546875 C5.61301413 65.98687445 6.72454653 67.9199064 7.8359375 69.85302734 C8.61043139 71.19832064 9.3864679 72.54272704 10.1640625 73.88623047 C11.28009173 75.81508202 12.39057394 77.74703232 13.5 79.6796875 C13.84998047 80.28183075 14.19996094 80.883974 14.56054688 81.50436401 C17 85.77225659 17 85.77225659 17 88 C2.55858164 88.43984015 -9.36698748 85.92863169 -20.375 75.8203125 C-30.00261153 65.03553612 -33.42305317 52.71029238 -33.27734375 38.51171875 C-32.29896254 26.12348349 -26.73529557 16.04428243 -17.8671875 7.5703125 C-12.2759529 2.86806081 -7.42563676 0 0 0 Z " fill="#898BEC" transform="translate(115,94)"/>
<path d="M0 0 C15.34581985 3.90879187 26.03502341 9.77317323 37 21 C38.01707031 21.98613281 38.01707031 21.98613281 39.0546875 22.9921875 C50.9413266 35.30146266 55.66644021 53.25735953 55.39819336 69.9453125 C54.61723427 91.02056826 46.55644127 107.95520233 31.43457031 122.50634766 C29.8515625 123.92578125 29.8515625 123.92578125 27 126 C21.90353423 124.30117808 20.25448422 119.18790223 17.6875 114.6875 C17.11193359 113.72392578 16.53636719 112.76035156 15.94335938 111.76757812 C15.40904297 110.83751953 14.87472656 109.90746094 14.32421875 108.94921875 C13.83010498 108.09674561 13.33599121 107.24427246 12.8269043 106.3659668 C12 104 12 104 12.76928711 101.80249023 C14.05905661 99.91350626 15.42329032 98.14262578 16.875 96.375 C25.61926694 84.93690021 26.27684771 70.85730553 25 57 C21.95421538 44.18858309 13.82607729 35.83254179 3 29 C2.01 28.34 1.02 27.68 0 27 C-0.34057617 24.29443359 -0.34057617 24.29443359 -0.29296875 20.8984375 C-0.28330078 19.68671875 -0.27363281 18.475 -0.26367188 17.2265625 C-0.23853516 15.95554687 -0.21339844 14.68453125 -0.1875 13.375 C-0.17396484 12.09625 -0.16042969 10.8175 -0.14648438 9.5 C-0.11103196 6.33291718 -0.06161441 3.16666459 0 0 Z " fill="#FDFDFE" transform="translate(144,68)"/>
<path d="M0 0 C0.86173828 0.00386719 1.72347656 0.00773437 2.61132812 0.01171875 C3.44599609 0.00785156 4.28066406 0.00398438 5.140625 0 C19.43439116 0.02228179 19.43439116 0.02228179 21.54882812 2.13671875 C24.79930177 28.98362197 22.1804218 57.20167753 21.54882812 84.13671875 C11.97882813 84.13671875 2.40882812 84.13671875 -7.45117188 84.13671875 C-7.45117188 65.65671875 -7.45117188 47.17671875 -7.45117188 28.13671875 C-8.44117187 27.80671875 -9.43117188 27.47671875 -10.45117188 27.13671875 C-9.46117188 27.13671875 -8.47117187 27.13671875 -7.45117188 27.13671875 C-7.45640869 26.35433838 -7.46164551 25.57195801 -7.46704102 24.76586914 C-7.48774293 21.24366042 -7.50081026 17.72146445 -7.51367188 14.19921875 C-7.52205078 12.96751953 -7.53042969 11.73582031 -7.5390625 10.46679688 C-7.54228516 9.29697266 -7.54550781 8.12714844 -7.54882812 6.921875 C-7.55406494 5.837854 -7.55930176 4.75383301 -7.56469727 3.63696289 C-7.33951575 -1.32235724 -4.24731758 0.00669396 0 0 Z " fill="#ACACFE" transform="translate(122.451171875,65.86328125)"/>
<path d="M0 0 C9.9 0 19.8 0 30 0 C32.413125 4.228125 34.82625 8.45625 37.3125 12.8125 C44.47846512 25.35611274 44.47846512 25.35611274 51.6875 37.875 C52.10789551 38.60235352 52.52829102 39.32970703 52.96142578 40.07910156 C55.46594097 44.39723119 58.00450739 48.69379018 60.5625 52.98046875 C61.16489502 53.99189941 61.76729004 55.00333008 62.38793945 56.04541016 C63.56733845 58.02275554 64.75063336 59.99778355 65.93823242 61.97021484 C66.46779541 62.85789551 66.9973584 63.74557617 67.54296875 64.66015625 C68.01758545 65.45043213 68.49220215 66.24070801 68.98120117 67.05493164 C70 69 70 69 70 71 C60.1 71 50.2 71 40 71 C37.97875 67.37 35.9575 63.74 33.875 60 C28.40173724 50.20234332 22.81682606 40.47811681 17.14355469 30.79467773 C13.10595094 23.90178046 9.09745617 16.99316821 5.125 10.0625 C4.34745361 8.71140137 4.34745361 8.71140137 3.55419922 7.33300781 C3.0851416 6.5128418 2.61608398 5.69267578 2.1328125 4.84765625 C1.71918457 4.12586182 1.30555664 3.40406738 0.87939453 2.66040039 C0 1 0 1 0 0 Z " fill="#4653A4" transform="translate(115,151)"/>
<path d="M0 0 C4.28892996 2.27060998 7.63979385 4.73347349 10 9 C10.79954594 14.33574535 10.66907031 18.61229861 8.3125 23.5 C4.6369874 27.47352714 1.98193241 29.15561677 -3.4375 29.4375 C-9.17362223 29.22787427 -12.204014 26.60693484 -16.375 22.875 C-18.78223661 18.61604292 -18.76618977 14.78102419 -18 10 C-14.00140517 2.1456173 -8.75005088 -0.74152974 0 0 Z " fill="#ACACFE" transform="translate(133,30)"/>
<path d="M0 0 C4.78974242 3.6189165 8.30098031 6.69369351 9.31640625 12.94921875 C9.61916749 18.07662685 8.35814561 20.98888164 5 25 C2.03491775 28.18471798 -1.27164062 28.84350773 -5.484375 29.19921875 C-10.17536404 28.82772738 -14.18969489 26.67546695 -18 24 C-19.7890625 21.82421875 -19.7890625 21.82421875 -21 20 C-20.14535156 20.23783203 -20.14535156 20.23783203 -19.2734375 20.48046875 C-13.94710634 21.69765439 -9.47002025 21.74837395 -4.5625 19.25 C-2.03902432 17.03426526 -1.13891147 16.06508893 0 13 C0.24143666 9.72057242 0.24143666 9.72057242 0.125 6.25 C0.09792969 4.49429688 0.09792969 4.49429688 0.0703125 2.703125 C0.04710937 1.81109375 0.02390625 0.9190625 0 0 Z " fill="#898BED" transform="translate(142,37)"/>
</svg>
