<?xml version="1.0" encoding="UTF-8"?>
<svg id="Layer_1" xmlns="http://www.w3.org/2000/svg" viewBox="0 0 1187.98 423.49">
  <defs>
    <style>
      .cls-1 {
        fill: #00176a;
      }

      .cls-2 {
        fill: #ccf;
      }

      .cls-3 {
        fill: #99f;
      }

      .cls-4 {
        fill: #4552a3;
      }
    </style>
  </defs>
  <g>
    <polygon class="cls-4" points="238.5 340.83 210.92 293.27 186.84 251.75 127.11 251.75 163.01 314.49 190.59 362.7 209.99 396.61 270.85 396.61 238.5 340.83"/>
    <rect class="cls-3" x="127.55" y="7.61" width="58.64" height="58.64" rx="29.32" ry="29.32"/>
    <path class="cls-2" d="M287.46,167c-7.34-17.42-17.68-32.6-30.99-45.55-13.32-12.94-28.94-23.02-46.86-30.24-7.39-2.97-15.05-5.33-22.99-7.07v55.2c10.68,4.35,20.09,10.58,28.22,18.71,8.21,8.21,14.56,17.86,19.04,28.94,4.48,11.08,6.72,23.34,6.72,36.78s-2.24,25.76-6.72,36.96c-4.48,11.2-10.83,20.85-19.04,28.94-1.27,1.26-2.59,2.45-3.93,3.62l27.58,47.57c6.25-4.38,12.13-9.23,17.6-14.6,13.31-13.07,23.71-28.31,31.18-45.74,7.47-17.42,11.2-36.34,11.2-56.75s-3.67-39.33-11.01-56.75Z"/>
    <path class="cls-2" d="M92.38,91.2c-17.92,7.22-33.54,17.3-46.86,30.24-13.32,12.94-23.65,28.13-30.99,45.55-7.34,17.42-11.02,36.34-11.02,56.75s3.74,39.33,11.2,56.75c7.47,17.43,17.86,32.67,31.18,45.74,13.31,13.07,28.94,23.21,46.86,30.43,17.92,7.22,37.34,10.83,58.24,10.83,13.86,0,27.04-1.62,39.59-4.79l-27.58-48.21c-3.91.47-7.9.73-12.01.73-12.69,0-24.45-2.24-35.28-6.72-10.83-4.48-20.35-10.76-28.56-18.86-8.22-8.09-14.56-17.73-19.04-28.94-4.48-11.2-6.72-23.52-6.72-36.96s2.24-25.7,6.72-36.78c4.48-11.07,10.83-20.72,19.04-28.94,8.21-8.21,17.73-14.5,28.56-18.86,3.68-1.48,7.49-2.69,11.39-3.67v-53.5c-12.18,1.71-23.75,4.77-34.72,9.19Z"/>
    <path class="cls-3" d="M151,80.38c-8.21,0-16.17.55-23.89,1.64v169.73h59.52V84.13c-11.32-2.49-23.2-3.75-35.63-3.75Z"/>
  </g>
  <g>
    <g>
      <path class="cls-1" d="M595.41,74.09c-4.59,0-8.31,3.72-8.31,8.31s3.72,8.31,8.31,8.31,8.31-3.72,8.31-8.31-3.72-8.31-8.31-8.31Z"/>
      <path class="cls-1" d="M669.25,102.17c0,12.02-9.35,20.99-23.47,20.99-10.3,0-17.37-3.05-22.33-8.59l-1.72,6.68h-5.34s-.76-25.95-.76-25.95h6.1c1.34,13.36,10.11,20.99,24.04,20.99,8.77,0,14.5-4.96,14.5-13.16s-4.58-12.21-18.89-15.84c-17.17-4.39-24.81-11.07-24.81-24.23,0-12.59,10.69-21.56,25-21.56,8.59,0,14.88,2.86,18.51,7.25l1.91-6.68h5.34s0,24.23,0,24.23h-6.11c-1.53-10.87-8.2-17.93-19.27-17.93-8.4,0-16.41,4.96-16.41,13.93s4.77,12.78,19.46,16.6c15.83,4.01,24.23,9.54,24.23,23.28Z"/>
      <path class="cls-1" d="M755.92,48.56c-6.49.96-8.77,3.05-12.21,11.26l-34.92,86.05c-3.05,7.44-2.1,11.45,8.39,12.02l-.19,5.53c-4.2-.19-11.07-.38-17.56-.38-5.34,0-12.4.19-18.51.38l-.19-5.53c12.21-.76,16.98-3.44,21.18-14.12l9.92-25.19-26.52-59.91c-3.43-7.44-6.29-9.73-12.4-10.11l.19-5.53c3.43.19,9.73.38,15.45.38,5.72,0,12.02-.19,16.03-.38l.19,5.53c-9.92.76-11.64,3.44-8.97,9.54l21.18,48.66,18.7-46.94c2.67-7.06,1.53-10.88-8.78-11.26l.2-5.53c4.77.19,10.87.38,15.83.38s9.92-.19,12.78-.38l.19,5.53Z"/>
      <path class="cls-1" d="M808.48,102.17c0,12.02-9.35,20.99-23.47,20.99-10.3,0-17.36-3.05-22.32-8.59l-1.72,6.68h-5.34s-.76-25.95-.76-25.95h6.11c1.33,13.36,10.11,20.99,24.04,20.99,8.78,0,14.5-4.96,14.5-13.16s-4.58-12.21-18.89-15.84c-17.17-4.39-24.8-11.07-24.8-24.23s10.68-21.56,24.99-21.56c8.59,0,14.88,2.86,18.51,7.25l1.91-6.68h5.34v24.23h-6.1c-1.53-10.87-8.2-17.93-19.27-17.93-8.39,0-16.41,4.96-16.41,13.93s4.77,12.78,19.46,16.6c15.84,4.01,24.23,9.54,24.23,23.28Z"/>
      <path class="cls-1" d="M507.35,89.12c0,5.14-.97,9.68-2.92,13.62-1.95,3.94-4.57,7.18-7.85,9.73-3.89,3.06-8.06,5.22-12.51,6.5-4.45,1.27-10.19,1.91-17.24,1.91h-29.67s0-103.48,0-103.48h27.45c7.37,0,12.89.24,16.58.73,3.68.49,7.21,1.64,10.6,3.44,3.71,1.99,6.42,4.6,8.13,7.82,1.72,3.22,2.57,7.01,2.57,11.37,0,4.86-1.29,9.22-3.86,13.07-2.57,3.84-6.13,6.86-10.67,9.03v.56c6.16,1.67,10.93,4.71,14.32,9.14,3.38,4.42,5.07,9.95,5.07,16.58ZM488.17,42.7c0-2.5-.41-4.67-1.25-6.5-.83-1.83-2.18-3.28-4.03-4.34-2.22-1.25-4.7-2.02-7.43-2.29-2.73-.28-6.51-.42-11.33-.42h-13.21v30.3h15.64c4.31,0,7.48-.22,9.52-.66,2.03-.44,4.15-1.35,6.32-2.74,2.08-1.34,3.57-3.11,4.45-5.28s1.32-4.86,1.32-8.06ZM493.04,89.68c0-3.89-.56-7.1-1.67-9.63-1.11-2.53-3.36-4.67-6.74-6.43-2.18-1.16-4.55-1.9-7.12-2.22-2.57-.32-6.22-.49-10.95-.49h-15.64v38.22h11.19c6.02,0,10.77-.28,14.25-.83,3.47-.56,6.53-1.74,9.17-3.55,2.59-1.81,4.49-3.86,5.7-6.15,1.21-2.29,1.81-5.27,1.81-8.93Z"/>
      <path class="cls-1" d="M561.84,112.61c-1.07.79-2.49,1.89-4.28,3.3-1.78,1.41-3.51,2.54-5.18,3.37-2.32,1.2-4.55,2.13-6.71,2.78-2.15.65-5.18.97-9.07.97-3.2,0-6.23-.6-9.11-1.81-2.87-1.2-5.4-2.9-7.57-5.07-2.08-2.13-3.75-4.76-5-7.89-1.25-3.13-1.88-6.43-1.88-9.9,0-5.37,1.14-9.95,3.41-13.73,2.27-3.78,5.86-6.78,10.77-9,4.36-1.99,9.5-3.37,15.43-4.14,5.93-.76,12.32-1.33,19.18-1.7v-2.5c0-3.06-.47-5.53-1.39-7.4-.93-1.88-2.22-3.32-3.89-4.34-1.67-1.06-3.71-1.77-6.12-2.12-2.41-.35-4.89-.52-7.44-.52-3.01,0-6.56.45-10.63,1.35-4.08.9-8.16,2.22-12.23,3.93h-.77v-13.27c2.41-.69,5.86-1.46,10.35-2.29,4.5-.83,8.94-1.25,13.34-1.25,5.33,0,9.82.42,13.49,1.25,3.66.83,6.95,2.34,9.87,4.52,2.83,2.13,4.94,4.89,6.33,8.27,1.39,3.38,2.08,7.51,2.08,12.37v53.1h-12.99v-8.27ZM561.84,101.77v-21.54c-3.11.28-7.03.66-11.78,1.14-4.75.49-8.58,1.17-11.5,2.05-3.47,1.06-6.35,2.7-8.62,4.9-2.27,2.2-3.4,5.27-3.4,9.21,0,4.45,1.25,7.81,3.75,10.08,2.5,2.27,6.16,3.4,10.98,3.4,4.12,0,7.85-.89,11.19-2.68,3.34-1.78,6.46-3.97,9.38-6.57Z"/>
      <rect class="cls-1" x="518.06" y="21.85" width="57.08" height="8.8"/>
    </g>
    <rect class="cls-3" x="438.74" y="199.2" width="41.36" height="41.36" rx="20.68" ry="20.68"/>
    <rect class="cls-3" x="438.74" y="258.29" width="41.36" height="131.65"/>
    <path class="cls-3" d="M611.26,394.37c-15.44,0-29.78-2.67-43.02-8-13.24-5.33-24.78-12.82-34.61-22.47-9.84-9.65-17.51-20.91-23.03-33.78-5.52-12.87-8.27-26.84-8.27-41.91s2.71-29.05,8.14-41.92c5.42-12.87,13.05-24.08,22.89-33.64,9.83-9.56,21.37-17,34.61-22.34,13.24-5.33,27.67-8,43.29-8s30.06,2.67,43.3,8c13.24,5.33,24.77,12.78,34.61,22.34,9.83,9.56,17.46,20.78,22.89,33.64,5.42,12.87,8.13,26.84,8.13,41.92s-2.76,29.05-8.27,41.91c-5.52,12.87-13.19,24.13-23.03,33.78-9.84,9.65-21.37,17.14-34.61,22.47-13.24,5.33-27.58,8-43.02,8ZM611.26,355.77c9.38,0,18.06-1.65,26.06-4.96,8-3.31,15.03-7.95,21.1-13.93,6.07-5.97,10.75-13.1,14.06-21.37,3.31-8.27,4.96-17.37,4.96-27.3s-1.65-18.98-4.96-27.16c-3.31-8.18-8-15.3-14.06-21.37-6.07-6.07-13.1-10.71-21.1-13.93-8-3.21-16.68-4.83-26.06-4.83s-18.06,1.61-26.06,4.83c-8,3.22-15.03,7.86-21.1,13.93-6.07,6.07-10.76,13.19-14.07,21.37-3.31,8.18-4.96,17.23-4.96,27.16s1.65,19.03,4.96,27.3c3.31,8.27,8,15.4,14.07,21.37,6.07,5.98,13.1,10.62,21.1,13.93,8,3.31,16.68,4.96,26.06,4.96ZM654.83,415.88l-61.22-107h44.12l62.05,107h-44.95Z"/>
    <path class="cls-1" d="M750.14,390.38v-169.46h60.05c11.22,0,21.08,2.13,29.57,6.37,8.49,4.25,15.13,10.31,19.9,18.2,4.78,7.89,7.16,17.21,7.16,27.98s-2.39,19.83-7.16,27.64c-4.78,7.81-11.37,13.84-19.79,18.08-8.42,4.25-18.31,6.37-29.68,6.37h-37.53v64.83h-22.52ZM772.65,305.08h38.21c6.67,0,12.51-1.29,17.51-3.87,5.01-2.58,8.91-6.29,11.71-11.15,2.8-4.85,4.21-10.46,4.21-16.83s-1.4-12.17-4.21-16.95c-2.81-4.78-6.71-8.45-11.71-11.03-5-2.58-10.84-3.87-17.51-3.87h-38.21v63.69Z"/>
    <path class="cls-1" d="M894.78,390.38v-122.61h20.93v22.52l-2.27-3.18c2.88-6.97,7.28-12.17,13.19-15.58,5.91-3.41,13.12-5.12,21.61-5.12h7.51v20.24h-10.69c-8.64,0-15.62,2.66-20.93,7.96-5.31,5.31-7.96,12.89-7.96,22.75v73.02h-21.38Z"/>
    <path class="cls-1" d="M1037.74,393.11c-11.68,0-22.29-2.77-31.85-8.3-9.55-5.53-17.17-13.15-22.86-22.86-5.69-9.7-8.53-20.7-8.53-32.98s2.8-23.2,8.42-32.76c5.61-9.55,13.19-17.13,22.75-22.75,9.55-5.61,20.24-8.42,32.07-8.42s22.75,2.77,32.3,8.3c9.55,5.54,17.1,13.08,22.63,22.63,5.53,9.55,8.3,20.55,8.3,32.98s-2.88,23.47-8.64,33.1c-5.76,9.63-13.39,17.21-22.86,22.75-9.48,5.54-20.06,8.3-31.73,8.3ZM1037.74,372.64c7.73,0,14.67-1.89,20.81-5.69,6.14-3.79,10.99-9.02,14.56-15.7,3.56-6.67,5.35-14.1,5.35-22.29s-1.78-15.54-5.35-22.06c-3.56-6.52-8.42-11.68-14.56-15.47-6.14-3.79-13.08-5.69-20.81-5.69s-14.44,1.9-20.59,5.69c-6.14,3.79-11.03,8.95-14.67,15.47-3.64,6.52-5.46,13.88-5.46,22.06s1.82,15.62,5.46,22.29c3.64,6.67,8.53,11.91,14.67,15.7,6.14,3.79,13,5.69,20.59,5.69Z"/>
    <path class="cls-3" d="M1176.32,227.34h-37.84v-37.85c0-4.49-3.64-8.13-8.13-8.13h0c-4.49,0-8.13,3.64-8.13,8.13v37.85h-38.06c-4.49,0-8.13,3.64-8.13,8.13s3.64,8.13,8.13,8.13h38.06v38.06c0,4.49,3.64,8.13,8.13,8.13h0c4.49,0,8.13-3.64,8.13-8.13v-38.06h37.84c4.49,0,8.13-3.64,8.13-8.13s-3.64-8.13-8.13-8.13Z"/>
  </g>
</svg>